<?xml version="1.0" encoding="utf-8"?>
<svg xmlns="http://www.w3.org/2000/svg" xmlns:xlink="http://www.w3.org/1999/xlink" width="600" height="400" viewBox="0 0 2400 1600">
<defs>
  <clipPath id="clip360">
    <rect x="0" y="0" width="2400" height="1600"/>
  </clipPath>
</defs>
<path clip-path="url(#clip360)" d="
M0 1600 L2400 1600 L2400 0 L0 0  Z
  " fill="#ffffff" fill-rule="evenodd" fill-opacity="1"/>
<defs>
  <clipPath id="clip361">
    <rect x="480" y="0" width="1681" height="1600"/>
  </clipPath>
</defs>
<path clip-path="url(#clip360)" d="
M147.478 1486.45 L2352.76 1486.45 L2352.76 47.2441 L147.478 47.2441  Z
  " fill="#ffffff" fill-rule="evenodd" fill-opacity="1"/>
<defs>
  <clipPath id="clip362">
    <rect x="147" y="47" width="2206" height="1440"/>
  </clipPath>
</defs>
<polyline clip-path="url(#clip362)" style="stroke:#000000; stroke-linecap:butt; stroke-linejoin:round; stroke-width:2; stroke-opacity:0.1; fill:none" points="
  188.877,1486.45 188.877,47.2441 
  "/>
<polyline clip-path="url(#clip362)" style="stroke:#000000; stroke-linecap:butt; stroke-linejoin:round; stroke-width:2; stroke-opacity:0.1; fill:none" points="
  714.243,1486.45 714.243,47.2441 
  "/>
<polyline clip-path="url(#clip362)" style="stroke:#000000; stroke-linecap:butt; stroke-linejoin:round; stroke-width:2; stroke-opacity:0.1; fill:none" points="
  1239.61,1486.45 1239.61,47.2441 
  "/>
<polyline clip-path="url(#clip362)" style="stroke:#000000; stroke-linecap:butt; stroke-linejoin:round; stroke-width:2; stroke-opacity:0.1; fill:none" points="
  1764.98,1486.45 1764.98,47.2441 
  "/>
<polyline clip-path="url(#clip362)" style="stroke:#000000; stroke-linecap:butt; stroke-linejoin:round; stroke-width:2; stroke-opacity:0.1; fill:none" points="
  2290.34,1486.45 2290.34,47.2441 
  "/>
<polyline clip-path="url(#clip360)" style="stroke:#000000; stroke-linecap:butt; stroke-linejoin:round; stroke-width:4; stroke-opacity:1; fill:none" points="
  147.478,1486.45 2352.76,1486.45 
  "/>
<polyline clip-path="url(#clip360)" style="stroke:#000000; stroke-linecap:butt; stroke-linejoin:round; stroke-width:4; stroke-opacity:1; fill:none" points="
  188.877,1486.45 188.877,1467.55 
  "/>
<polyline clip-path="url(#clip360)" style="stroke:#000000; stroke-linecap:butt; stroke-linejoin:round; stroke-width:4; stroke-opacity:1; fill:none" points="
  714.243,1486.45 714.243,1467.55 
  "/>
<polyline clip-path="url(#clip360)" style="stroke:#000000; stroke-linecap:butt; stroke-linejoin:round; stroke-width:4; stroke-opacity:1; fill:none" points="
  1239.61,1486.45 1239.61,1467.55 
  "/>
<polyline clip-path="url(#clip360)" style="stroke:#000000; stroke-linecap:butt; stroke-linejoin:round; stroke-width:4; stroke-opacity:1; fill:none" points="
  1764.98,1486.45 1764.98,1467.55 
  "/>
<polyline clip-path="url(#clip360)" style="stroke:#000000; stroke-linecap:butt; stroke-linejoin:round; stroke-width:4; stroke-opacity:1; fill:none" points="
  2290.34,1486.45 2290.34,1467.55 
  "/>
<path clip-path="url(#clip360)" d="M188.877 1517.37 Q185.266 1517.37 183.437 1520.93 Q181.631 1524.47 181.631 1531.6 Q181.631 1538.71 183.437 1542.27 Q185.266 1545.82 188.877 1545.82 Q192.511 1545.82 194.317 1542.27 Q196.145 1538.71 196.145 1531.6 Q196.145 1524.47 194.317 1520.93 Q192.511 1517.37 188.877 1517.37 M188.877 1513.66 Q194.687 1513.66 197.742 1518.27 Q200.821 1522.85 200.821 1531.6 Q200.821 1540.33 197.742 1544.94 Q194.687 1549.52 188.877 1549.52 Q183.067 1549.52 179.988 1544.94 Q176.932 1540.33 176.932 1531.6 Q176.932 1522.85 179.988 1518.27 Q183.067 1513.66 188.877 1513.66 Z" fill="#000000" fill-rule="evenodd" fill-opacity="1" /><path clip-path="url(#clip360)" d="M693.514 1544.91 L709.833 1544.91 L709.833 1548.85 L687.889 1548.85 L687.889 1544.91 Q690.551 1542.16 695.134 1537.53 Q699.741 1532.88 700.921 1531.53 Q703.167 1529.01 704.046 1527.27 Q704.949 1525.51 704.949 1523.82 Q704.949 1521.07 703.005 1519.33 Q701.084 1517.6 697.982 1517.6 Q695.783 1517.6 693.329 1518.36 Q690.898 1519.13 688.121 1520.68 L688.121 1515.95 Q690.945 1514.82 693.398 1514.24 Q695.852 1513.66 697.889 1513.66 Q703.259 1513.66 706.454 1516.35 Q709.648 1519.03 709.648 1523.52 Q709.648 1525.65 708.838 1527.57 Q708.051 1529.47 705.945 1532.07 Q705.366 1532.74 702.264 1535.95 Q699.162 1539.15 693.514 1544.91 Z" fill="#000000" fill-rule="evenodd" fill-opacity="1" /><path clip-path="url(#clip360)" d="M719.695 1514.29 L738.051 1514.29 L738.051 1518.22 L723.977 1518.22 L723.977 1526.7 Q724.995 1526.35 726.014 1526.19 Q727.032 1526 728.051 1526 Q733.838 1526 737.218 1529.17 Q740.597 1532.34 740.597 1537.76 Q740.597 1543.34 737.125 1546.44 Q733.653 1549.52 727.333 1549.52 Q725.157 1549.52 722.889 1549.15 Q720.644 1548.78 718.236 1548.04 L718.236 1543.34 Q720.32 1544.47 722.542 1545.03 Q724.764 1545.58 727.241 1545.58 Q731.245 1545.58 733.583 1543.48 Q735.921 1541.37 735.921 1537.76 Q735.921 1534.15 733.583 1532.04 Q731.245 1529.94 727.241 1529.94 Q725.366 1529.94 723.491 1530.35 Q721.639 1530.77 719.695 1531.65 L719.695 1514.29 Z" fill="#000000" fill-rule="evenodd" fill-opacity="1" /><path clip-path="url(#clip360)" d="M1214.31 1514.29 L1232.67 1514.29 L1232.67 1518.22 L1218.59 1518.22 L1218.59 1526.7 Q1219.61 1526.35 1220.63 1526.19 Q1221.65 1526 1222.67 1526 Q1228.45 1526 1231.83 1529.17 Q1235.21 1532.34 1235.21 1537.76 Q1235.21 1543.34 1231.74 1546.44 Q1228.27 1549.52 1221.95 1549.52 Q1219.77 1549.52 1217.5 1549.15 Q1215.26 1548.78 1212.85 1548.04 L1212.85 1543.34 Q1214.93 1544.47 1217.16 1545.03 Q1219.38 1545.58 1221.86 1545.58 Q1225.86 1545.58 1228.2 1543.48 Q1230.54 1541.37 1230.54 1537.76 Q1230.54 1534.15 1228.2 1532.04 Q1225.86 1529.94 1221.86 1529.94 Q1219.98 1529.94 1218.11 1530.35 Q1216.25 1530.77 1214.31 1531.65 L1214.31 1514.29 Z" fill="#000000" fill-rule="evenodd" fill-opacity="1" /><path clip-path="url(#clip360)" d="M1254.42 1517.37 Q1250.81 1517.37 1248.98 1520.93 Q1247.18 1524.47 1247.18 1531.6 Q1247.18 1538.71 1248.98 1542.27 Q1250.81 1545.82 1254.42 1545.82 Q1258.06 1545.82 1259.86 1542.27 Q1261.69 1538.71 1261.69 1531.6 Q1261.69 1524.47 1259.86 1520.93 Q1258.06 1517.37 1254.42 1517.37 M1254.42 1513.66 Q1260.23 1513.66 1263.29 1518.27 Q1266.37 1522.85 1266.37 1531.6 Q1266.37 1540.33 1263.29 1544.94 Q1260.23 1549.52 1254.42 1549.52 Q1248.61 1549.52 1245.54 1544.94 Q1242.48 1540.33 1242.48 1531.6 Q1242.48 1522.85 1245.54 1518.27 Q1248.61 1513.66 1254.42 1513.66 Z" fill="#000000" fill-rule="evenodd" fill-opacity="1" /><path clip-path="url(#clip360)" d="M1738.83 1514.29 L1761.05 1514.29 L1761.05 1516.28 L1748.51 1548.85 L1743.62 1548.85 L1755.43 1518.22 L1738.83 1518.22 L1738.83 1514.29 Z" fill="#000000" fill-rule="evenodd" fill-opacity="1" /><path clip-path="url(#clip360)" d="M1770.22 1514.29 L1788.58 1514.29 L1788.58 1518.22 L1774.5 1518.22 L1774.5 1526.7 Q1775.52 1526.35 1776.54 1526.19 Q1777.56 1526 1778.58 1526 Q1784.36 1526 1787.74 1529.17 Q1791.12 1532.34 1791.12 1537.76 Q1791.12 1543.34 1787.65 1546.44 Q1784.18 1549.52 1777.86 1549.52 Q1775.68 1549.52 1773.41 1549.15 Q1771.17 1548.78 1768.76 1548.04 L1768.76 1543.34 Q1770.84 1544.47 1773.07 1545.03 Q1775.29 1545.58 1777.77 1545.58 Q1781.77 1545.58 1784.11 1543.48 Q1786.45 1541.37 1786.45 1537.76 Q1786.45 1534.15 1784.11 1532.04 Q1781.77 1529.94 1777.77 1529.94 Q1775.89 1529.94 1774.02 1530.35 Q1772.16 1530.77 1770.22 1531.65 L1770.22 1514.29 Z" fill="#000000" fill-rule="evenodd" fill-opacity="1" /><path clip-path="url(#clip360)" d="M2249.95 1544.91 L2257.59 1544.91 L2257.59 1518.55 L2249.28 1520.21 L2249.28 1515.95 L2257.54 1514.29 L2262.22 1514.29 L2262.22 1544.91 L2269.86 1544.91 L2269.86 1548.85 L2249.95 1548.85 L2249.95 1544.91 Z" fill="#000000" fill-rule="evenodd" fill-opacity="1" /><path clip-path="url(#clip360)" d="M2289.3 1517.37 Q2285.69 1517.37 2283.86 1520.93 Q2282.06 1524.47 2282.06 1531.6 Q2282.06 1538.71 2283.86 1542.27 Q2285.69 1545.82 2289.3 1545.82 Q2292.93 1545.82 2294.74 1542.27 Q2296.57 1538.71 2296.57 1531.6 Q2296.57 1524.47 2294.74 1520.93 Q2292.93 1517.37 2289.3 1517.37 M2289.3 1513.66 Q2295.11 1513.66 2298.17 1518.27 Q2301.25 1522.85 2301.25 1531.6 Q2301.25 1540.33 2298.17 1544.94 Q2295.11 1549.52 2289.3 1549.52 Q2283.49 1549.52 2280.41 1544.94 Q2277.36 1540.33 2277.36 1531.6 Q2277.36 1522.85 2280.41 1518.27 Q2283.49 1513.66 2289.3 1513.66 Z" fill="#000000" fill-rule="evenodd" fill-opacity="1" /><path clip-path="url(#clip360)" d="M2319.46 1517.37 Q2315.85 1517.37 2314.02 1520.93 Q2312.22 1524.47 2312.22 1531.6 Q2312.22 1538.71 2314.02 1542.27 Q2315.85 1545.82 2319.46 1545.82 Q2323.1 1545.82 2324.9 1542.27 Q2326.73 1538.71 2326.73 1531.6 Q2326.73 1524.47 2324.9 1520.93 Q2323.1 1517.37 2319.46 1517.37 M2319.46 1513.66 Q2325.27 1513.66 2328.33 1518.27 Q2331.41 1522.85 2331.41 1531.6 Q2331.41 1540.33 2328.33 1544.94 Q2325.27 1549.52 2319.46 1549.52 Q2313.65 1549.52 2310.57 1544.94 Q2307.52 1540.33 2307.52 1531.6 Q2307.52 1522.85 2310.57 1518.27 Q2313.65 1513.66 2319.46 1513.66 Z" fill="#000000" fill-rule="evenodd" fill-opacity="1" /><polyline clip-path="url(#clip362)" style="stroke:#000000; stroke-linecap:butt; stroke-linejoin:round; stroke-width:2; stroke-opacity:0.1; fill:none" points="
  147.478,1316.88 2352.76,1316.88 
  "/>
<polyline clip-path="url(#clip362)" style="stroke:#000000; stroke-linecap:butt; stroke-linejoin:round; stroke-width:2; stroke-opacity:0.1; fill:none" points="
  147.478,1082.21 2352.76,1082.21 
  "/>
<polyline clip-path="url(#clip362)" style="stroke:#000000; stroke-linecap:butt; stroke-linejoin:round; stroke-width:2; stroke-opacity:0.1; fill:none" points="
  147.478,847.54 2352.76,847.54 
  "/>
<polyline clip-path="url(#clip362)" style="stroke:#000000; stroke-linecap:butt; stroke-linejoin:round; stroke-width:2; stroke-opacity:0.1; fill:none" points="
  147.478,612.872 2352.76,612.872 
  "/>
<polyline clip-path="url(#clip362)" style="stroke:#000000; stroke-linecap:butt; stroke-linejoin:round; stroke-width:2; stroke-opacity:0.1; fill:none" points="
  147.478,378.205 2352.76,378.205 
  "/>
<polyline clip-path="url(#clip362)" style="stroke:#000000; stroke-linecap:butt; stroke-linejoin:round; stroke-width:2; stroke-opacity:0.1; fill:none" points="
  147.478,143.537 2352.76,143.537 
  "/>
<polyline clip-path="url(#clip360)" style="stroke:#000000; stroke-linecap:butt; stroke-linejoin:round; stroke-width:4; stroke-opacity:1; fill:none" points="
  147.478,1486.45 147.478,47.2441 
  "/>
<polyline clip-path="url(#clip360)" style="stroke:#000000; stroke-linecap:butt; stroke-linejoin:round; stroke-width:4; stroke-opacity:1; fill:none" points="
  147.478,1316.88 166.376,1316.88 
  "/>
<polyline clip-path="url(#clip360)" style="stroke:#000000; stroke-linecap:butt; stroke-linejoin:round; stroke-width:4; stroke-opacity:1; fill:none" points="
  147.478,1082.21 166.376,1082.21 
  "/>
<polyline clip-path="url(#clip360)" style="stroke:#000000; stroke-linecap:butt; stroke-linejoin:round; stroke-width:4; stroke-opacity:1; fill:none" points="
  147.478,847.54 166.376,847.54 
  "/>
<polyline clip-path="url(#clip360)" style="stroke:#000000; stroke-linecap:butt; stroke-linejoin:round; stroke-width:4; stroke-opacity:1; fill:none" points="
  147.478,612.872 166.376,612.872 
  "/>
<polyline clip-path="url(#clip360)" style="stroke:#000000; stroke-linecap:butt; stroke-linejoin:round; stroke-width:4; stroke-opacity:1; fill:none" points="
  147.478,378.205 166.376,378.205 
  "/>
<polyline clip-path="url(#clip360)" style="stroke:#000000; stroke-linecap:butt; stroke-linejoin:round; stroke-width:4; stroke-opacity:1; fill:none" points="
  147.478,143.537 166.376,143.537 
  "/>
<path clip-path="url(#clip360)" d="M51.3625 1317.33 L81.0383 1317.33 L81.0383 1321.26 L51.3625 1321.26 L51.3625 1317.33 Z" fill="#000000" fill-rule="evenodd" fill-opacity="1" /><path clip-path="url(#clip360)" d="M95.1586 1330.22 L111.478 1330.22 L111.478 1334.16 L89.5336 1334.16 L89.5336 1330.22 Q92.1956 1327.47 96.7789 1322.84 Q101.385 1318.18 102.566 1316.84 Q104.811 1314.32 105.691 1312.58 Q106.594 1310.82 106.594 1309.13 Q106.594 1306.38 104.649 1304.64 Q102.728 1302.91 99.6261 1302.91 Q97.4271 1302.91 94.9734 1303.67 Q92.5428 1304.43 89.7651 1305.98 L89.7651 1301.26 Q92.5891 1300.13 95.0428 1299.55 Q97.4965 1298.97 99.5335 1298.97 Q104.904 1298.97 108.098 1301.66 Q111.293 1304.34 111.293 1308.83 Q111.293 1310.96 110.483 1312.88 Q109.696 1314.78 107.589 1317.37 Q107.01 1318.04 103.909 1321.26 Q100.807 1324.46 95.1586 1330.22 Z" fill="#000000" fill-rule="evenodd" fill-opacity="1" /><path clip-path="url(#clip360)" d="M50.9921 1082.66 L80.6679 1082.66 L80.6679 1086.59 L50.9921 1086.59 L50.9921 1082.66 Z" fill="#000000" fill-rule="evenodd" fill-opacity="1" /><path clip-path="url(#clip360)" d="M91.5706 1095.55 L99.2095 1095.55 L99.2095 1069.19 L90.8993 1070.85 L90.8993 1066.59 L99.1632 1064.93 L103.839 1064.93 L103.839 1095.55 L111.478 1095.55 L111.478 1099.49 L91.5706 1099.49 L91.5706 1095.55 Z" fill="#000000" fill-rule="evenodd" fill-opacity="1" /><path clip-path="url(#clip360)" d="M99.5335 833.339 Q95.9224 833.339 94.0937 836.904 Q92.2882 840.445 92.2882 847.575 Q92.2882 854.681 94.0937 858.246 Q95.9224 861.788 99.5335 861.788 Q103.168 861.788 104.973 858.246 Q106.802 854.681 106.802 847.575 Q106.802 840.445 104.973 836.904 Q103.168 833.339 99.5335 833.339 M99.5335 829.635 Q105.344 829.635 108.399 834.242 Q111.478 838.825 111.478 847.575 Q111.478 856.302 108.399 860.908 Q105.344 865.492 99.5335 865.492 Q93.7234 865.492 90.6447 860.908 Q87.5892 856.302 87.5892 847.575 Q87.5892 838.825 90.6447 834.242 Q93.7234 829.635 99.5335 829.635 Z" fill="#000000" fill-rule="evenodd" fill-opacity="1" /><path clip-path="url(#clip360)" d="M91.5706 626.217 L99.2095 626.217 L99.2095 599.852 L90.8993 601.518 L90.8993 597.259 L99.1632 595.592 L103.839 595.592 L103.839 626.217 L111.478 626.217 L111.478 630.152 L91.5706 630.152 L91.5706 626.217 Z" fill="#000000" fill-rule="evenodd" fill-opacity="1" /><path clip-path="url(#clip360)" d="M95.1586 391.549 L111.478 391.549 L111.478 395.485 L89.5336 395.485 L89.5336 391.549 Q92.1956 388.795 96.7789 384.165 Q101.385 379.512 102.566 378.17 Q104.811 375.647 105.691 373.911 Q106.594 372.151 106.594 370.462 Q106.594 367.707 104.649 365.971 Q102.728 364.235 99.6261 364.235 Q97.4271 364.235 94.9734 364.999 Q92.5428 365.762 89.7651 367.313 L89.7651 362.591 Q92.5891 361.457 95.0428 360.878 Q97.4965 360.3 99.5335 360.3 Q104.904 360.3 108.098 362.985 Q111.293 365.67 111.293 370.161 Q111.293 372.29 110.483 374.212 Q109.696 376.11 107.589 378.702 Q107.01 379.374 103.909 382.591 Q100.807 385.786 95.1586 391.549 Z" fill="#000000" fill-rule="evenodd" fill-opacity="1" /><path clip-path="url(#clip360)" d="M104.348 142.183 Q107.705 142.9 109.58 145.169 Q111.478 147.437 111.478 150.77 Q111.478 155.886 107.959 158.687 Q104.441 161.488 97.9595 161.488 Q95.7836 161.488 93.4688 161.048 Q91.1771 160.632 88.7234 159.775 L88.7234 155.261 Q90.6678 156.395 92.9826 156.974 Q95.2974 157.553 97.8206 157.553 Q102.219 157.553 104.51 155.817 Q106.825 154.081 106.825 150.77 Q106.825 147.715 104.672 146.002 Q102.543 144.266 98.7234 144.266 L94.6956 144.266 L94.6956 140.423 L98.9085 140.423 Q102.358 140.423 104.186 139.058 Q106.015 137.669 106.015 135.076 Q106.015 132.414 104.117 131.002 Q102.242 129.567 98.7234 129.567 Q96.8021 129.567 94.603 129.984 Q92.4039 130.4 89.7651 131.28 L89.7651 127.113 Q92.4271 126.372 94.7419 126.002 Q97.0798 125.632 99.14 125.632 Q104.464 125.632 107.566 128.062 Q110.668 130.47 110.668 134.59 Q110.668 137.46 109.024 139.451 Q107.381 141.419 104.348 142.183 Z" fill="#000000" fill-rule="evenodd" fill-opacity="1" /><polyline clip-path="url(#clip362)" style="stroke:#009af9; stroke-linecap:butt; stroke-linejoin:round; stroke-width:4; stroke-opacity:1; fill:none" points="
  209.891,1052.13 230.906,1274.94 251.921,993.175 272.935,1063.01 293.95,966.338 314.965,991.215 335.979,986.914 356.994,1171.22 378.009,818.27 399.023,966.092 
  420.038,859.81 441.053,811.688 462.067,911.727 483.082,1040.18 504.097,659.255 525.111,297.954 546.126,620.477 567.141,851.797 588.155,937.598 609.17,926.814 
  630.185,787.468 651.199,825.446 672.214,1176.3 693.229,786.431 714.243,767.441 735.258,947.268 756.272,861.183 777.287,1074.14 798.302,1157.94 819.316,1445.72 
  840.331,938.863 861.346,696.158 882.36,863.381 903.375,1144.72 924.39,715.515 945.404,961.413 966.419,1051.96 987.434,1239.51 1008.45,879.024 1029.46,545.934 
  1050.48,445.937 1071.49,625.667 1092.51,544.052 1113.52,517.345 1134.54,288.637 1155.55,577.135 1176.57,896.127 1197.58,672.363 1218.59,889.542 1239.61,1089.86 
  1260.62,584.321 1281.64,1048.4 1302.65,919.086 1323.67,989.019 1344.68,970.403 1365.7,618.878 1386.71,738.243 1407.73,652.44 1428.74,787.352 1449.76,672.797 
  1470.77,900.839 1491.79,504.961 1512.8,572.093 1533.81,649.932 1554.83,946.168 1575.84,623.218 1596.86,552.958 1617.87,411.28 1638.89,577.947 1659.9,660.582 
  1680.92,921.906 1701.93,699.511 1722.95,1045.93 1743.96,958.9 1764.98,1083.24 1785.99,1003.18 1807.01,1212.51 1828.02,1197.16 1849.03,1400.9 1870.05,942.71 
  1891.06,1058.89 1912.08,1048.9 1933.09,783.692 1954.11,657.084 1975.12,1119.29 1996.14,430.082 2017.15,1066.05 2038.17,1240.47 2059.18,1398.51 2080.2,979.03 
  2101.21,1228.49 2122.23,925.76 2143.24,1056.13 2164.25,1129.32 2185.27,644.396 2206.28,87.9763 2227.3,546.446 2248.31,423.894 2269.33,720.313 2290.34,1100.33 
  
  "/>
<path clip-path="url(#clip360)" d="
M1981.79 198.898 L2279.25 198.898 L2279.25 95.2176 L1981.79 95.2176  Z
  " fill="#ffffff" fill-rule="evenodd" fill-opacity="1"/>
<polyline clip-path="url(#clip360)" style="stroke:#000000; stroke-linecap:butt; stroke-linejoin:round; stroke-width:4; stroke-opacity:1; fill:none" points="
  1981.79,198.898 2279.25,198.898 2279.25,95.2176 1981.79,95.2176 1981.79,198.898 
  "/>
<polyline clip-path="url(#clip360)" style="stroke:#009af9; stroke-linecap:butt; stroke-linejoin:round; stroke-width:4; stroke-opacity:1; fill:none" points="
  2006.29,147.058 2153.31,147.058 
  "/>
<path clip-path="url(#clip360)" d="M2191.65 166.745 Q2189.85 171.375 2188.13 172.787 Q2186.42 174.199 2183.55 174.199 L2180.15 174.199 L2180.15 170.634 L2182.65 170.634 Q2184.41 170.634 2185.38 169.8 Q2186.35 168.967 2187.53 165.865 L2188.3 163.921 L2177.81 138.412 L2182.32 138.412 L2190.43 158.689 L2198.53 138.412 L2203.04 138.412 L2191.65 166.745 Z" fill="#000000" fill-rule="evenodd" fill-opacity="1" /><path clip-path="url(#clip360)" d="M2210.33 160.402 L2217.97 160.402 L2217.97 134.037 L2209.66 135.703 L2209.66 131.444 L2217.93 129.778 L2222.6 129.778 L2222.6 160.402 L2230.24 160.402 L2230.24 164.338 L2210.33 164.338 L2210.33 160.402 Z" fill="#000000" fill-rule="evenodd" fill-opacity="1" /></svg>
